<svg width="81" height="81" viewBox="0 0 81 81" fill="none" xmlns="http://www.w3.org/2000/svg">
<path fill-rule="evenodd" clip-rule="evenodd" d="M40.5 3.34998C42.341 3.34998 43.8334 4.84236 43.8334 6.68331V20.0166C43.8334 21.8576 42.341 23.35 40.5 23.35C38.6591 23.35 37.1667 21.8576 37.1667 20.0166V6.68331C37.1667 4.84236 38.6591 3.34998 40.5 3.34998ZM14.5727 14.0894C15.8745 12.7877 17.985 12.7877 19.2868 14.0894L28.7149 23.5174C30.0166 24.8192 30.0166 26.9297 28.7149 28.2315C27.4132 29.5332 25.3026 29.5332 24.0009 28.2315L14.5727 18.8035C13.271 17.5017 13.271 15.3912 14.5727 14.0894ZM66.4272 14.0895C67.729 15.3913 67.729 17.5018 66.4272 18.8036L56.9992 28.2317C55.6975 29.5334 53.5869 29.5334 52.2852 28.2317C50.9834 26.9299 50.9834 24.8194 52.2852 23.5176L61.7132 14.0895C63.0149 12.7878 65.1255 12.7878 66.4272 14.0895ZM34.8097 34.3263C35.5978 33.5382 36.7276 33.1961 37.8204 33.4147L71.1538 40.0814C72.4758 40.3458 73.5084 41.3805 73.77 42.7031C74.0316 44.0257 73.4708 45.3756 72.349 46.1235L65.7322 50.5347L72.8571 57.6596C74.1588 58.9614 74.1588 61.0719 72.8571 62.3737L62.8571 72.3737C61.5553 73.6754 59.4448 73.6754 58.143 72.3737L51.0181 65.2488L46.6069 71.8656C45.859 72.9874 44.5091 73.5482 43.1865 73.2866C41.8639 73.025 40.8292 71.9924 40.5648 70.6704L33.8981 37.337C33.6795 36.2442 34.0216 35.1144 34.8097 34.3263ZM41.4159 40.9325L45.5238 61.4718L47.7265 58.1676C48.2805 57.3367 49.1778 56.7979 50.1716 56.6995C51.1654 56.6011 52.1509 56.9535 52.8571 57.6596L60.5 65.3026L65.786 60.0166L58.143 52.3737C57.4369 51.6675 57.0845 50.682 57.1829 49.6882C57.2813 48.6944 57.8201 47.7971 58.651 47.2431L61.9552 45.0404L41.4159 40.9325ZM3.83337 40.0166C3.83337 38.1757 5.32576 36.6833 7.16671 36.6833H20.5C22.341 36.6833 23.8334 38.1757 23.8334 40.0166C23.8334 41.8576 22.341 43.35 20.5 43.35H7.16671C5.32576 43.35 3.83337 41.8576 3.83337 40.0166ZM28.7149 51.8016C30.0166 53.1033 30.0166 55.2139 28.7149 56.5156L19.2869 65.9438C17.9851 67.2456 15.8746 67.2456 14.5728 65.9438C13.2711 64.6421 13.271 62.5316 14.5728 61.2298L24.0008 51.8016C25.3026 50.4999 27.4131 50.4999 28.7149 51.8016Z" fill="black" fill-opacity="0.85"/>
<path d="M45.5234 61.4723L41.4155 40.933L61.9549 45.0408L58.6507 47.2436C57.8198 47.7976 57.281 48.6949 57.1826 49.6887C57.0842 50.6825 57.4365 51.668 58.1427 52.3742L65.7856 60.0171L60.4997 65.3031L52.8567 57.6601C52.1506 56.954 51.165 56.6016 50.1712 56.7C49.1774 56.7984 48.2801 57.3372 47.7262 58.1681L45.5234 61.4723Z" fill="#00D170"/>
</svg>
