<svg width="80" height="81" viewBox="0 0 80 81" fill="none" xmlns="http://www.w3.org/2000/svg">
<path d="M10 10.0166C10 6.33474 12.9848 3.34998 16.6667 3.34998H63.3333C67.0153 3.34998 70 6.33478 70 10.0166V45.0166C70 46.8576 68.5076 48.35 66.6667 48.35C64.8257 48.35 63.3333 46.8576 63.3333 45.0166V10.0166H16.6667V70.0166H35C36.8409 70.0166 38.3333 71.509 38.3333 73.35C38.3333 75.1909 36.8409 76.6833 35 76.6833H16.6667C12.9848 76.6833 10 73.6986 10 70.0166V10.0166Z" fill="black" fill-opacity="0.85"/>
<path d="M25 20.0166C25 18.1757 26.4924 16.6833 28.3333 16.6833H51.6667C53.5076 16.6833 55 18.1757 55 20.0166C55 21.8576 53.5076 23.35 51.6667 23.35H28.3333C26.4924 23.35 25 21.8576 25 20.0166Z" fill="black" fill-opacity="0.85"/>
<path d="M28.3333 30.0166C26.4924 30.0166 25 31.509 25 33.35C25 35.1909 26.4924 36.6833 28.3333 36.6833H51.6667C53.5076 36.6833 55 35.1909 55 33.35C55 31.509 53.5076 30.0166 51.6667 30.0166H28.3333Z" fill="black" fill-opacity="0.85"/>
<path d="M25 46.6833C25 44.8424 26.4924 43.35 28.3333 43.35H38.3333C40.1743 43.35 41.6667 44.8424 41.6667 46.6833C41.6667 48.5243 40.1743 50.0166 38.3333 50.0166H28.3333C26.4924 50.0166 25 48.5243 25 46.6833Z" fill="black" fill-opacity="0.85"/>
<path fill-rule="evenodd" clip-rule="evenodd" d="M53.3333 50.0166C46.8901 50.0166 41.6667 55.24 41.6667 61.6833C41.6667 68.1266 46.8901 73.35 53.3333 73.35C55.3411 73.35 57.2326 72.8411 58.8831 71.9471L62.643 75.707C63.9447 77.0087 66.0553 77.0087 67.357 75.707C68.6588 74.4052 68.6588 72.2947 67.357 70.9929L63.5971 67.2331C64.4911 65.5826 65 63.6911 65 61.6833C65 55.24 59.7766 50.0166 53.3333 50.0166ZM58.3333 61.6833C58.3333 63.065 57.7774 64.3103 56.8689 65.2187C55.9606 66.1271 54.715 66.6833 53.3333 66.6833C50.5719 66.6833 48.3333 64.4447 48.3333 61.6833C48.3333 58.9219 50.5719 56.6833 53.3333 56.6833C56.0947 56.6833 58.3333 58.9219 58.3333 61.6833Z" fill="black" fill-opacity="0.85"/>
<path d="M56.8689 65.2186C57.7773 64.3102 58.3333 63.0649 58.3333 61.6832C58.3333 58.9218 56.0946 56.6832 53.3333 56.6832C50.5719 56.6832 48.3333 58.9218 48.3333 61.6832C48.3333 64.4446 50.5719 66.6832 53.3333 66.6832C54.7149 66.6832 55.9605 66.127 56.8689 65.2186Z" fill="#00D170"/>
</svg>
