<svg width="81" height="81" viewBox="0 0 81 81" fill="none" xmlns="http://www.w3.org/2000/svg">
<path d="M13.8334 6.68323C10.1515 6.68323 7.16675 9.668 7.16675 13.3499V26.6832C7.16675 28.5242 8.65913 30.0166 10.5001 30.0166C12.341 30.0166 13.8334 28.5242 13.8334 26.6832V13.3499H27.1667C29.0077 13.3499 30.5001 11.8575 30.5001 10.0166C30.5001 8.17561 29.0077 6.68323 27.1667 6.68323H13.8334Z" fill="black" fill-opacity="0.85"/>
<path d="M13.8334 53.3499C13.8334 51.5089 12.341 50.0166 10.5001 50.0166C8.65913 50.0166 7.16675 51.5089 7.16675 53.3499V66.6832C7.16675 70.3652 10.1515 73.3499 13.8334 73.3499H27.1667C29.0077 73.3499 30.5001 71.8575 30.5001 70.0166C30.5001 68.1756 29.0077 66.6832 27.1667 66.6832H13.8334V53.3499Z" fill="black" fill-opacity="0.85"/>
<path d="M70.5001 50.0166C72.341 50.0166 73.8334 51.5089 73.8334 53.3499V66.6832C73.8334 70.3652 70.8487 73.3499 67.1668 73.3499H53.8334C51.9925 73.3499 50.5001 71.8575 50.5001 70.0166C50.5001 68.1756 51.9925 66.6832 53.8334 66.6832H67.1668V53.3499C67.1668 51.5089 68.6591 50.0166 70.5001 50.0166Z" fill="black" fill-opacity="0.85"/>
<path d="M53.8334 6.68323C51.9925 6.68323 50.5001 8.17561 50.5001 10.0166C50.5001 11.8575 51.9925 13.3499 53.8334 13.3499H67.1668V26.6832C67.1668 28.5242 68.6591 30.0166 70.5001 30.0166C72.341 30.0166 73.8334 28.5242 73.8334 26.6832V13.3499C73.8334 9.66803 70.8487 6.68323 67.1668 6.68323H53.8334Z" fill="black" fill-opacity="0.85"/>
<path fill-rule="evenodd" clip-rule="evenodd" d="M40.5001 33.3499C35.8976 33.3499 32.1667 37.0808 32.1667 41.6832C32.1667 46.2857 35.8976 50.0166 40.5001 50.0166C45.1025 50.0166 48.8334 46.2857 48.8334 41.6832C48.8334 37.0808 45.1025 33.3499 40.5001 33.3499ZM38.8334 41.6832C38.8334 40.7627 39.5795 40.0166 40.5001 40.0166C41.4206 40.0166 42.1667 40.7627 42.1667 41.6832C42.1667 42.6038 41.4206 43.3499 40.5001 43.3499C39.5795 43.3499 38.8334 42.6038 38.8334 41.6832Z" fill="black" fill-opacity="0.85"/>
<path fill-rule="evenodd" clip-rule="evenodd" d="M32.7266 23.1676C33.3448 22.2402 34.3856 21.6832 35.5001 21.6832H45.5001C46.6146 21.6832 47.6554 22.2402 48.2736 23.1676L50.6174 26.6832H58.8334C60.6744 26.6832 62.1668 28.1756 62.1668 30.0166V55.0166C62.1668 56.8575 60.6744 58.3499 58.8334 58.3499H22.1667C20.3258 58.3499 18.8334 56.8575 18.8334 55.0166V30.0166C18.8334 28.1756 20.3258 26.6832 22.1667 26.6832H30.3828L32.7266 23.1676ZM37.284 28.3499L34.9403 31.8656C34.322 32.7929 33.2813 33.3499 32.1667 33.3499H25.5001V51.6832H55.5001V33.3499H48.8334C47.7189 33.3499 46.6781 32.7929 46.0599 31.8656L43.7161 28.3499H37.284Z" fill="black" fill-opacity="0.85"/>
<path d="M40.5 40.0166C39.5794 40.0166 38.8333 40.7628 38.8333 41.6833C38.8333 42.6039 39.5794 43.35 40.5 43.35C41.4205 43.35 42.1667 42.6039 42.1667 41.6833C42.1667 40.7628 41.4205 40.0166 40.5 40.0166Z" fill="#00D170"/>
<path fill-rule="evenodd" clip-rule="evenodd" d="M34.9402 31.8656L37.2839 28.35H43.7161L46.0598 31.8656C46.6781 32.793 47.7188 33.35 48.8333 33.35H55.5V51.6833H25.5V33.35H32.1667C33.2812 33.35 34.3219 32.793 34.9402 31.8656ZM40.5 33.35C35.8976 33.35 32.1667 37.0809 32.1667 41.6833C32.1667 46.2858 35.8976 50.0166 40.5 50.0166C45.1024 50.0166 48.8333 46.2858 48.8333 41.6833C48.8333 37.0809 45.1024 33.35 40.5 33.35Z" fill="#00D170"/>
</svg>
